<svg width="219" height="50" viewBox="0 0 219 50" fill="none" xmlns="http://www.w3.org/2000/svg">
<path d="M14.9957 2.44837H22.5483L36.6905 37.8798H28.8337L25.7924 30.1751H11.7516L8.71031 37.8798H0.802877L14.9957 2.44837ZM23.7648 24.0418L18.7467 10.5586L13.7285 24.0418H23.7648ZM44.7911 9.79823C43.6084 9.79823 42.6115 9.40962 41.8005 8.63239C40.9895 7.85517 40.584 6.87518 40.584 5.69245C40.584 4.5435 40.9895 3.58042 41.8005 2.80319C42.6115 1.99217 43.6084 1.58667 44.7911 1.58667C45.9401 1.58667 46.9201 1.99217 47.7311 2.80319C48.5421 3.58042 48.9476 4.5435 48.9476 5.69245C48.9476 6.87518 48.5421 7.85517 47.7311 8.63239C46.9201 9.40962 45.9401 9.79823 44.7911 9.79823ZM38.3537 49.5888C36.4613 49.5888 34.9406 49.3354 33.7917 48.8285V42.6952C34.6703 43.1345 35.7686 43.3541 37.0865 43.3541C38.3706 43.3541 39.3337 43.0331 39.9757 42.3911C40.6178 41.749 40.9388 40.7352 40.9388 39.3497V13.5492H48.5928V40.2114C48.5928 43.3203 47.6635 45.652 45.8049 47.2065C43.9463 48.7947 41.4626 49.5888 38.3537 49.5888ZM54.7566 0.420826H62.4106V16.3371C63.5596 15.1543 64.8606 14.2757 66.3136 13.7013C67.7667 13.093 69.3212 12.7889 70.977 12.7889C74.2887 12.7889 76.7555 13.6844 78.3775 15.4754C80.0334 17.2326 80.8613 19.6149 80.8613 22.6225V37.8798H73.2073V23.4842C73.2073 20.3415 71.7542 18.7701 68.8481 18.7701C67.564 18.7701 66.3643 19.0912 65.2492 19.7332C64.134 20.3415 63.1878 21.2539 62.4106 22.4704V37.8798H54.7566V0.420826ZM100.439 38.6401C95.7756 38.6401 92.1092 37.5249 89.4396 35.2946C86.77 33.0305 85.4351 29.8709 85.4351 25.8159C85.4351 21.7946 86.6179 18.6181 88.9834 16.2864C91.3826 13.9547 94.7957 12.7889 99.2225 12.7889C102.129 12.7889 104.595 13.3295 106.623 14.4109C108.651 15.4923 110.188 16.996 111.236 18.9222C112.283 20.8146 112.807 22.9604 112.807 25.3597V28.4517H92.7343C93.275 31.5606 96.1811 33.115 101.453 33.115C103.007 33.115 104.612 32.9799 106.268 32.7095C107.924 32.4392 109.36 32.0675 110.577 31.5944V36.9674C109.394 37.4743 107.873 37.8798 106.015 38.1839C104.156 38.488 102.298 38.6401 100.439 38.6401ZM105.559 23.4842C105.457 21.8621 104.849 20.6118 103.734 19.7332C102.619 18.8208 101.081 18.3646 99.1211 18.3646C97.1949 18.3646 95.6743 18.8208 94.5591 19.7332C93.444 20.6456 92.8357 21.8959 92.7343 23.4842H105.559ZM117.547 13.5492H124.948V17.0467C125.928 15.864 127.296 14.9685 129.054 14.3602C130.811 13.7182 132.805 13.3971 135.035 13.3971V19.2263C132.703 19.2263 130.642 19.5811 128.851 20.2908C127.094 21.0004 125.877 22.0818 125.201 23.5349V37.8798H117.547V13.5492Z" fill="#EC5F5F"/>
<path d="M144.624 47.9161C142.799 47.9161 141.279 47.7303 140.062 47.3585V43.3541C140.941 43.6921 142.022 43.861 143.306 43.861C144.489 43.861 145.418 43.5569 146.094 42.9486C146.77 42.3742 147.378 41.428 147.919 40.1101L149.085 37.2715L138.44 13.5492H143.712L151.822 32.2533L159.375 13.5492H164.646L153.697 40.6169C152.684 43.1514 151.467 44.9931 150.048 46.142C148.662 47.3248 146.854 47.9161 144.624 47.9161ZM175.571 38.6401C172.293 38.6401 169.809 37.7615 168.119 36.0043C166.464 34.2471 165.636 31.8985 165.636 28.9586V13.5492H170.755V28.7558C170.755 32.6419 172.698 34.585 176.584 34.585C179.998 34.585 182.667 33.0474 184.593 29.9723V13.5492H189.713V37.8798H184.745V34.4329C183.596 35.886 182.228 36.9505 180.64 37.6263C179.085 38.3022 177.396 38.6401 175.571 38.6401ZM194.255 0.420826H199.375V37.8798H194.255V0.420826ZM199.425 25.5624L210.627 13.5492H216.862L205.609 25.5624L218.028 37.8798H211.793L199.425 25.5624Z" fill="black"/>
</svg>
