<svg width="200" height="200" viewBox="0 0 200 200" fill="none" xmlns="http://www.w3.org/2000/svg">
<defs>
<radialGradient id="paint0_angular" cx="0" cy="0" r="1" gradientUnits="userSpaceOnUse" gradientTransform="translate(100 79.2264) rotate(90) scale(70)">
<stop offset="0.328125" stop-color="#EC5F5F"/>
<stop offset="0.666667" stop-color="#EC5F5F" stop-opacity="0"/>
</radialGradient>
</defs>
<path d="M88.5241 46.7715C91.9851 35.4485 108.015 35.4485 111.476 46.7716L117.376 66.0762C117.91 67.8201 118.833 69.4195 120.077 70.7531L133.845 85.5155C141.92 94.1743 133.905 108.057 122.369 105.392L102.7 100.85C100.923 100.44 99.0765 100.44 97.2998 100.85L77.6312 105.392C66.0946 108.057 58.0797 94.1743 66.1553 85.5155L79.9233 70.7531C81.167 69.4195 82.0905 67.8201 82.6235 66.0762L88.5241 46.7715Z" fill="url(#paint0_angular)"/>
<path d="M125.115 64.7264L100 108.226L74.8853 64.7264H125.115Z" stroke="white" stroke-opacity="0.8"/>
<path d="M15.9962 134.732H22.7096L35.2804 166.226H28.2966L25.5932 159.378H13.1126L10.4092 166.226H3.38034L15.9962 134.732ZM23.791 153.926L19.3304 141.941L14.8698 153.926H23.791ZM42.481 141.265C41.4297 141.265 40.5436 140.92 39.8227 140.229C39.1018 139.538 38.7413 138.667 38.7413 137.615C38.7413 136.594 39.1018 135.738 39.8227 135.047C40.5436 134.326 41.4297 133.966 42.481 133.966C43.5023 133.966 44.3734 134.326 45.0943 135.047C45.8152 135.738 46.1757 136.594 46.1757 137.615C46.1757 138.667 45.8152 139.538 45.0943 140.229C44.3734 140.92 43.5023 141.265 42.481 141.265ZM36.7588 176.635C35.0767 176.635 33.725 176.409 32.7037 175.959V170.507C33.4847 170.897 34.4609 171.093 35.6324 171.093C36.7739 171.093 37.6299 170.807 38.2006 170.236C38.7714 169.666 39.0567 168.765 39.0567 167.533V144.599H45.8603V168.299C45.8603 171.063 45.0342 173.135 43.3822 174.517C41.7301 175.929 39.5223 176.635 36.7588 176.635ZM51.3392 132.93H58.1428V147.077C59.1641 146.026 60.3205 145.245 61.6121 144.734C62.9037 144.194 64.2855 143.923 65.7573 143.923C68.701 143.923 70.8938 144.719 72.3356 146.311C73.8074 147.873 74.5434 149.991 74.5434 152.664V166.226H67.7398V153.43C67.7398 150.637 66.4482 149.24 63.865 149.24C62.7235 149.24 61.6572 149.525 60.6659 150.096C59.6747 150.637 58.8336 151.448 58.1428 152.529V166.226H51.3392V132.93ZM91.9458 166.902C87.8006 166.902 84.5415 165.911 82.1685 163.929C79.7955 161.916 78.609 159.107 78.609 155.503C78.609 151.928 79.6603 149.105 81.763 147.032C83.8957 144.96 86.9295 143.923 90.8644 143.923C93.4477 143.923 95.6404 144.404 97.4427 145.365C99.245 146.326 100.612 147.663 101.543 149.375C102.474 151.057 102.94 152.965 102.94 155.097V157.846H85.0972C85.5778 160.609 88.161 161.991 92.8469 161.991C94.2286 161.991 95.6554 161.871 97.1273 161.631C98.5991 161.39 99.8757 161.06 100.957 160.639V165.415C99.9058 165.866 98.5541 166.226 96.902 166.497C95.2499 166.767 93.5979 166.902 91.9458 166.902ZM96.4965 153.43C96.4064 151.989 95.8657 150.877 94.8745 150.096C93.8832 149.285 92.5165 148.88 90.7743 148.88C89.0622 148.88 87.7105 149.285 86.7192 150.096C85.728 150.907 85.1873 152.019 85.0972 153.43H96.4965ZM107.153 144.599H113.731V147.708C114.602 146.657 115.819 145.861 117.381 145.32C118.943 144.749 120.715 144.464 122.698 144.464V149.646C120.625 149.646 118.793 149.961 117.201 150.592C115.639 151.223 114.557 152.184 113.957 153.475V166.226H107.153V144.599Z" fill="#EC5F5F"/>
<path d="M131.221 175.148C129.599 175.148 128.248 174.982 127.166 174.652V171.093C127.947 171.393 128.909 171.543 130.05 171.543C131.101 171.543 131.927 171.273 132.528 170.732C133.129 170.221 133.669 169.38 134.15 168.209L135.186 165.686L125.725 144.599H130.41L137.619 161.225L144.333 144.599H149.019L139.287 168.659C138.385 170.912 137.304 172.549 136.042 173.571C134.811 174.622 133.204 175.148 131.221 175.148ZM158.73 166.902C155.816 166.902 153.608 166.121 152.106 164.559C150.634 162.997 149.898 160.91 149.898 158.296V144.599H154.449V158.116C154.449 161.571 156.176 163.298 159.631 163.298C162.664 163.298 165.037 161.931 166.75 159.198V144.599H171.3V166.226H166.885V163.163C165.863 164.454 164.647 165.4 163.235 166.001C161.853 166.602 160.352 166.902 158.73 166.902ZM175.338 132.93H179.889V166.226H175.338V132.93ZM179.934 155.278L189.891 144.599H195.433L185.43 155.278L196.469 166.226H190.927L179.934 155.278Z" fill="black"/>
</svg>
