<svg width="12" height="13" viewBox="0 0 12 13" fill="none" xmlns="http://www.w3.org/2000/svg">
<path d="M6.00008 2.33333C3.05941 2.33333 0.666748 4.726 0.666748 7.66666C0.666748 10.6073 3.05941 13 6.00008 13C8.94075 13 11.3334 10.6073 11.3334 7.66666C11.3334 4.726 8.94075 2.33333 6.00008 2.33333ZM6.00008 11.6667C3.79408 11.6667 2.00008 9.87266 2.00008 7.66666C2.00008 5.46066 3.79408 3.66666 6.00008 3.66666C8.20608 3.66666 10.0001 5.46066 10.0001 7.66666C10.0001 9.87266 8.20608 11.6667 6.00008 11.6667Z" fill="#8C8C8C"/>
<path d="M5.33342 5H6.66675V8.33333H5.33342V5ZM4.00008 0.333328H8.00008V1.66666H4.00008V0.333328Z" fill="#8C8C8C"/>
<path d="M10.8619 4.13797L9.52878 2.80481L10.4716 1.86202L11.8047 3.19518L10.8619 4.13797Z" fill="#8C8C8C"/>
</svg>
